<?xml version="1.0" encoding="utf-8"?>
<!-- Generator: Adobe Illustrator 22.0.1, SVG Export Plug-In . SVG Version: 6.00 Build 0)  -->
<svg version="1.1" id="Capa_1" xmlns="http://www.w3.org/2000/svg" xmlns:xlink="http://www.w3.org/1999/xlink" x="0px" y="0px"
	 viewBox="0 0 58 58" style="enable-background:new 0 0 58 58;" xml:space="preserve">
<style type="text/css">
	.st0{fill:#E7CC8F;}
</style>
<g>
	<path class="st0" d="M13.3,37.4v10.5c0,0.7,0.9,1.4,1.7,1.4h28c0.9,0,1.7-0.7,1.7-1.4V37.4H13.3z M22.3,44.1
		c0.1,0.3,0.2,0.6,0.4,0.8c0.2,0.2,0.3,0.4,0.6,0.5c0.2,0.1,0.4,0.1,0.7,0.1s0.4,0,0.6-0.1c0.2-0.1,0.4-0.2,0.5-0.4l0.8,0.7
		c-0.3,0.3-0.6,0.4-0.9,0.6c-0.3,0.1-0.7,0.2-1.1,0.2c-0.4,0-0.8-0.1-1.2-0.2c-0.4-0.2-0.7-0.4-0.9-0.7s-0.5-0.7-0.6-1.1
		c-0.1-0.5-0.2-1-0.2-1.6s0.1-1.1,0.2-1.6c0.1-0.4,0.4-0.8,0.6-1.1c0.3-0.3,0.6-0.5,0.9-0.7c0.4-0.2,0.7-0.2,1.2-0.2
		c0.4,0,0.7,0.1,1.1,0.2c0.3,0.1,0.6,0.3,0.9,0.6l-0.8,0.7c-0.2-0.2-0.3-0.3-0.5-0.4c-0.2-0.1-0.4-0.1-0.6-0.1c-0.2,0-0.5,0-0.7,0.1
		c-0.2,0.1-0.4,0.2-0.6,0.5s-0.3,0.5-0.4,0.8c-0.1,0.3-0.1,0.8-0.2,1.2C22.2,43.4,22.2,43.8,22.3,44.1z M31.4,45.3
		c-0.1,0.2-0.3,0.4-0.4,0.6c-0.2,0.2-0.4,0.3-0.7,0.4s-0.6,0.2-1,0.2c-0.2,0-0.3,0-0.5,0c-0.2,0-0.3,0-0.5-0.1s-0.3-0.1-0.5-0.2
		c-0.1-0.1-0.3-0.1-0.4-0.2l0.2-0.8c0.1,0.1,0.2,0.1,0.3,0.1c0.1,0,0.3,0.1,0.4,0.1s0.3,0.1,0.4,0.1s0.3,0,0.4,0
		c0.4,0,0.7-0.1,0.9-0.3c0.2-0.2,0.3-0.5,0.3-0.8c0-0.2-0.1-0.4-0.2-0.6s-0.3-0.3-0.5-0.4c-0.2-0.1-0.5-0.2-0.7-0.4
		c-0.3-0.1-0.5-0.3-0.7-0.4c-0.2-0.2-0.4-0.4-0.6-0.6c-0.1-0.2-0.2-0.5-0.2-0.9c0-0.3,0.1-0.6,0.2-0.8s0.3-0.4,0.5-0.6
		s0.4-0.3,0.7-0.4c0.3-0.1,0.5-0.1,0.8-0.1c0.3,0,0.6,0,0.9,0.1c0.3,0.1,0.5,0.1,0.7,0.3c0,0.1-0.1,0.2-0.1,0.3
		C31.1,40,31,40.1,31,40.2c0,0.1-0.1,0.2-0.1,0.2c0,0.1-0.1,0.1-0.1,0.1c0,0-0.1,0-0.1-0.1c0,0-0.1-0.1-0.2-0.1
		c-0.1,0-0.2-0.1-0.4-0.1s-0.3,0-0.6,0c-0.1,0-0.2,0-0.4,0.1c-0.1,0.1-0.2,0.1-0.3,0.2c-0.1,0.1-0.2,0.2-0.2,0.3s-0.1,0.2-0.1,0.3
		c0,0.3,0.1,0.5,0.2,0.6c0.1,0.2,0.3,0.3,0.5,0.4c0.2,0.1,0.5,0.2,0.7,0.3c0.3,0.1,0.5,0.2,0.7,0.4c0.2,0.2,0.4,0.4,0.5,0.6
		c0.1,0.2,0.2,0.5,0.2,0.9C31.5,44.8,31.5,45,31.4,45.3z M36.6,45.3c-0.1,0.2-0.3,0.4-0.4,0.6c-0.2,0.2-0.4,0.3-0.7,0.4
		c-0.3,0.1-0.6,0.2-1,0.2c-0.2,0-0.3,0-0.5,0s-0.3,0-0.5-0.1c-0.2,0-0.3-0.1-0.5-0.2c-0.1-0.1-0.3-0.1-0.4-0.2l0.2-0.8
		c0.1,0.1,0.2,0.1,0.3,0.1c0.1,0,0.3,0.1,0.4,0.1c0.1,0,0.3,0.1,0.4,0.1c0.1,0,0.3,0,0.4,0c0.4,0,0.7-0.1,0.9-0.3
		c0.2-0.2,0.3-0.5,0.3-0.8c0-0.2-0.1-0.4-0.2-0.6c-0.1-0.2-0.3-0.3-0.5-0.4s-0.5-0.2-0.7-0.4s-0.5-0.3-0.7-0.4s-0.4-0.4-0.6-0.6
		s-0.2-0.5-0.2-0.9c0-0.3,0.1-0.6,0.2-0.8c0.1-0.2,0.3-0.4,0.5-0.6c0.2-0.2,0.4-0.3,0.7-0.4c0.3-0.1,0.5-0.1,0.8-0.1
		c0.3,0,0.6,0,0.9,0.1c0.3,0.1,0.5,0.1,0.7,0.3c0,0.1-0.1,0.2-0.1,0.3c-0.1,0.1-0.1,0.2-0.1,0.3c0,0.1-0.1,0.2-0.1,0.2
		c0,0.1-0.1,0.1-0.1,0.1c0,0-0.1,0-0.1-0.1c0,0-0.1-0.1-0.2-0.1c-0.1,0-0.2-0.1-0.4-0.1s-0.3,0-0.6,0c-0.1,0-0.2,0-0.4,0.1
		c-0.1,0.1-0.2,0.1-0.3,0.2s-0.2,0.2-0.2,0.3s-0.1,0.2-0.1,0.3c0,0.3,0.1,0.5,0.2,0.6c0.1,0.2,0.3,0.3,0.5,0.4
		c0.2,0.1,0.5,0.2,0.7,0.3c0.3,0.1,0.5,0.2,0.7,0.4s0.4,0.4,0.5,0.6c0.1,0.2,0.2,0.5,0.2,0.9C36.7,44.8,36.7,45,36.6,45.3z"/>
	<path class="st0" d="M44.7,36V18.5c0-0.5-0.1-0.9-0.4-1.3l-8.1-8.1c-0.2-0.2-0.6-0.4-0.9-0.4H15c-0.8,0-1.7,0.6-1.7,2V36H44.7z
		 M34.9,11.1c0-0.3,0.4-0.5,0.6-0.3l7,7c0.2,0.2,0.1,0.6-0.3,0.6h-7.4V11.1z M34.2,24.8V22c0-0.4-0.3-0.7-0.7-0.7
		c-0.4,0-0.7-0.3-0.7-0.7s0.3-0.7,0.7-0.7c1.2,0,2.1,0.9,2.1,2.1v2.8c0,0.8,0.6,1.4,1.4,1.4c0.4,0,0.7,0.3,0.7,0.7s-0.3,0.7-0.7,0.7
		c-0.8,0-1.4,0.6-1.4,1.4v2.8c0,1.2-0.9,2.1-2.1,2.1c-0.4,0-0.7-0.3-0.7-0.7s0.3-0.7,0.7-0.7c0.4,0,0.7-0.3,0.7-0.7V29
		c0-0.8,0.4-1.6,1-2.1C34.6,26.4,34.2,25.6,34.2,24.8z M20.3,26.2c0.8,0,1.4-0.6,1.4-1.4V22c0-1.2,0.9-2.1,2.1-2.1
		c0.4,0,0.7,0.3,0.7,0.7s-0.3,0.7-0.7,0.7c-0.4,0-0.7,0.3-0.7,0.7v2.8c0,0.8-0.4,1.6-1,2.1c0.6,0.5,1,1.3,1,2.1v2.8
		c0,0.4,0.3,0.7,0.7,0.7c0.4,0,0.7,0.3,0.7,0.7s-0.3,0.7-0.7,0.7c-1.2,0-2.1-0.9-2.1-2.1V29c0-0.8-0.6-1.4-1.4-1.4
		c-0.4,0-0.7-0.3-0.7-0.7S19.9,26.2,20.3,26.2z"/>
</g>
</svg>
