<?xml version="1.0" encoding="utf-8"?>
<!-- Generator: Adobe Illustrator 22.0.1, SVG Export Plug-In . SVG Version: 6.00 Build 0)  -->
<svg version="1.1" id="Camada_1" xmlns="http://www.w3.org/2000/svg" xmlns:xlink="http://www.w3.org/1999/xlink" x="0px" y="0px"
	 viewBox="0 0 512 512" style="enable-background:new 0 0 512 512;" xml:space="preserve">
<style type="text/css">
	.st0{fill:#71726D;}
</style>
<path class="st0" d="M256,235.7c-11.2,0-20.3,9.2-20.3,20.3c0,9.5,6.7,18.2,15.5,20.3v-6.7c-0.9,0.2-1.7,0.2-2.6-0.1
	c-1.2-0.4-2.2-1.2-2.9-2.4c-0.5-0.8-1.3-1.6-2.1-1.6l-0.2-2.4c1.8-0.2,3.4,1.1,4.4,2.7c0.4,0.7,0.9,1.1,1.5,1.3
	c0.6,0.2,1.2,0.1,2-0.2c0.2-1.5,0.9-2.1,1.4-2.9v0c-5.3-0.8-7.4-3.6-8.2-5.8c-1.1-2.9-0.5-6.6,1.4-8.9c0,0,0.1-0.2,0.1-0.2
	c-0.9-2.7,0.2-5,0.2-5.2c1,0.3,1.2-0.3,4.5,1.7l0.6,0.3c0.2,0.1,0.2,0.1,0.4,0c1.4-0.4,2.8-0.6,4.3-0.6c1.4,0,2.9,0.2,4.3,0.6l0.2,0
	c0,0,0.1,0,0.2-0.1c4.1-2.5,4-1.7,5.1-2c0,0.2,1.1,2.5,0.2,5.2c-0.1,0.4,3.6,3.8,1.5,9.2c-0.8,2.2-2.9,5-8.2,5.8v0
	c0.7,1,1.5,1.6,1.5,3.7v8.4c8.9-2.1,15.5-10.8,15.5-20.3C276.3,244.8,267.2,235.7,256,235.7z"/>
</svg>
