<?xml version="1.0" encoding="utf-8"?>
<!-- Generator: Adobe Illustrator 22.0.1, SVG Export Plug-In . SVG Version: 6.00 Build 0)  -->
<svg version="1.1" id="Capa_1" xmlns="http://www.w3.org/2000/svg" xmlns:xlink="http://www.w3.org/1999/xlink" x="0px" y="0px"
	 viewBox="0 0 58 58" style="enable-background:new 0 0 58 58;" xml:space="preserve">
<style type="text/css">
	.st0{fill:#E7CC8F;}
</style>
<g>
	<path class="st0" d="M44.7,36V18.5c0-0.5-0.1-0.9-0.4-1.3l-8.1-8.1c-0.2-0.2-0.6-0.4-0.9-0.4H15c-0.8,0-1.7,0.6-1.7,2V36H44.7z
		 M34.9,11.1c0-0.3,0.4-0.5,0.6-0.3l7,7c0.2,0.2,0.1,0.6-0.3,0.6h-7.4v-7.3H34.9z M33,21.8c-0.3-0.3-0.3-0.7,0-1s0.7-0.3,1,0
		l4.2,4.2c0.3,0.3,0.3,0.7,0,1L34,30.2c-0.1,0.1-0.3,0.2-0.5,0.2s-0.4-0.1-0.5-0.2c-0.3-0.3-0.3-0.7,0-1l3.7-3.7L33,21.8z M20.5,25
		l4.2-4.2c0.3-0.3,0.7-0.3,1,0s0.3,0.7,0,1L22,25.5l3.7,3.7c0.3,0.3,0.3,0.7,0,1c-0.1,0.1-0.3,0.2-0.5,0.2s-0.4-0.1-0.5-0.2L20.5,26
		C20.2,25.7,20.2,25.3,20.5,25z"/>
	<path class="st0" d="M13.3,37.4v10.5c0,0.7,0.9,1.4,1.7,1.4h28c0.9,0,1.7-0.7,1.7-1.4V37.4H13.3z M21.6,46.5h-1.1v-3.2h-3v3.2h-1.2
		v-7h1.2v3.1h3v-3.1h1.1V46.5z M28.4,40.2h-2.1v6.3h-1.2v-6.3H23v-0.8h5.4V40.2L28.4,40.2z M36.2,46.5H35v-4.8l-1.6,3.9h-1l-1.6-3.9
		v4.8h-1.2v-7h1.2l2.1,4.8l2.1-4.8h1.2V46.5L36.2,46.5z M42.4,46.5H38v-7h1.2v6.2h3.2V46.5z"/>
</g>
</svg>
