<?xml version="1.0" encoding="utf-8"?>
<!-- Generator: Adobe Illustrator 22.0.1, SVG Export Plug-In . SVG Version: 6.00 Build 0)  -->
<svg version="1.1" id="Capa_1" xmlns="http://www.w3.org/2000/svg" xmlns:xlink="http://www.w3.org/1999/xlink" x="0px" y="0px"
	 viewBox="0 0 54 54" style="enable-background:new 0 0 54 54;" xml:space="preserve">
<style type="text/css">
	.st0{fill:#E7CC8F;}
</style>
<g>
	<polygon class="st0" points="20.3,27.8 25.5,27.8 22.9,19.2 	"/>
	<path class="st0" d="M38.1,6.8H15.9c-5,0-9.1,4.1-9.1,9.1v22.2c0,5,4.1,9.1,9.1,9.1h22.2c5,0,9.1-4.1,9.1-9.1V15.9
		C47.3,10.8,43.2,6.8,38.1,6.8z M28.1,36.8L26,30h-6.2l-2,6.8h-2.3l6.2-21h2.5l6.4,21H28.1z M35.4,36.8h-2.2v-15h2.2V36.8z
		 M35.3,17.5c-0.2,0.2-0.5,0.4-0.9,0.4s-0.6-0.1-0.9-0.4c-0.3-0.2-0.4-0.5-0.4-0.9c0-0.3,0.1-0.6,0.4-0.9c0.2-0.2,0.5-0.4,0.9-0.4
		s0.6,0.1,0.9,0.4c0.2,0.2,0.4,0.5,0.4,0.9S35.5,17.3,35.3,17.5z"/>
</g>
</svg>
