<?xml version="1.0" encoding="utf-8"?>
<!-- Generator: Adobe Illustrator 22.0.1, SVG Export Plug-In . SVG Version: 6.00 Build 0)  -->
<svg version="1.1" id="Camada_1" xmlns="http://www.w3.org/2000/svg" xmlns:xlink="http://www.w3.org/1999/xlink" x="0px" y="0px"
	 viewBox="0 0 512 512" style="enable-background:new 0 0 512 512;" xml:space="preserve">
<style type="text/css">
	.st0{fill:#71726D;}
</style>
<path class="st0" d="M270.4,235.7h-28.7c-3.3,0-5.9,2.7-5.9,5.9v28.7c0,3.3,2.7,5.9,5.9,5.9h28.7c3.3,0,5.9-2.7,5.9-5.9v-28.7
	C276.3,238.4,273.6,235.7,270.4,235.7z M250.1,267.9h-4.8v-16.7h4.8V267.9z M250.1,248.9h-4.8v-4.8h4.8V248.9z M266.7,267.9h-4.8
	v-9.5c0-1.3-1.1-2.4-2.4-2.4c-1.3,0-2.4,1.1-2.4,2.4v9.5h-4.8v-16.7h4.8v0.9c1.2-0.4,2.1-0.9,3.6-0.9c3.2,0,5.9,2.9,5.9,6.3V267.9z"
	/>
</svg>
