<?xml version="1.0" encoding="utf-8"?>
<!-- Generator: Adobe Illustrator 22.0.1, SVG Export Plug-In . SVG Version: 6.00 Build 0)  -->
<svg version="1.1" id="Capa_1" xmlns="http://www.w3.org/2000/svg" xmlns:xlink="http://www.w3.org/1999/xlink" x="0px" y="0px"
	 viewBox="0 0 54 54" style="enable-background:new 0 0 54 54;" xml:space="preserve">
<style type="text/css">
	.st0{fill:#E7CC8F;}
</style>
<g>
	<path class="st0" d="M21.5,17.9h-4.9v9.9h5c0.7,0,1.3-0.1,1.8-0.4c0.5-0.3,0.9-0.6,1.1-0.9c0.2-0.3,0.4-0.8,0.5-1.4
		c0.1-0.6,0.2-1,0.2-1.4c0-0.3,0-0.7,0-1.3C25.3,19.4,24,17.9,21.5,17.9z"/>
	<path class="st0" d="M38.1,6.8H15.9c-5,0-9.1,4.1-9.1,9.1v22.2c0,5,4.1,9.1,9.1,9.1h22.2c5,0,9.1-4.1,9.1-9.1V15.9
		C47.3,10.8,43.2,6.8,38.1,6.8z M27.4,24.2c0,0.5-0.2,1.2-0.4,1.9c-0.2,0.8-0.5,1.4-0.9,1.9c-0.4,0.5-0.9,0.9-1.7,1.3
		c-0.7,0.4-1.6,0.6-2.6,0.6h-5.3v6.9h-2.2v-21h7.2c2,0,3.4,0.6,4.4,1.8c0.9,1.2,1.4,2.8,1.4,4.8C27.5,23.1,27.5,23.7,27.4,24.2z
		 M39.2,36c-0.9,0.8-2.2,1.2-3.9,1.2c-1.7,0-3.1-0.4-4.1-1.2c-1-0.8-1.5-1.8-1.5-3l2.1-0.1c0.1,0.7,0.5,1.3,1.1,1.7
		c0.7,0.4,1.4,0.6,2.3,0.6c0.9,0,1.6-0.2,2.2-0.6s0.9-0.9,0.9-1.7s-0.3-1.3-0.8-1.7c-0.5-0.4-1.2-0.8-2-1c-0.8-0.2-1.6-0.5-2.4-0.8
		c-0.8-0.3-1.5-0.7-2.1-1.3c-0.7-0.7-1.1-1.6-1.1-2.6s0.4-2,1.2-2.8s2.1-1.3,3.9-1.3c0.6,0,1.2,0.1,1.8,0.2c0.6,0.1,1,0.3,1.2,0.4
		l0.4,0.2l-0.7,1.9c-0.6-0.5-1.5-0.8-2.5-0.8c-1,0-1.8,0.2-2.3,0.6c-0.5,0.4-0.8,0.9-0.8,1.5c0,0.7,0.3,1.2,1,1.6
		c0.6,0.4,1.4,0.7,2.2,1c0.8,0.3,1.6,0.5,2.4,0.9c0.8,0.3,1.5,0.8,2,1.5c0.6,0.7,0.8,1.6,0.8,2.7C40.5,34.2,40.1,35.1,39.2,36z"/>
</g>
</svg>
