<?xml version="1.0" encoding="utf-8"?>
<!-- Generator: Adobe Illustrator 22.0.1, SVG Export Plug-In . SVG Version: 6.00 Build 0)  -->
<svg version="1.1" id="Camada_1" xmlns="http://www.w3.org/2000/svg" xmlns:xlink="http://www.w3.org/1999/xlink" x="0px" y="0px"
	 viewBox="0 0 512 512" style="enable-background:new 0 0 512 512;" xml:space="preserve">
<style type="text/css">
	.st0{fill:#71726D;}
</style>
<path class="st0" d="M245.8,257.8c0.1-0.1,0.6-2.1,0.6-2.3c-0.8-1.2-1.7-5.2-1-8.4c0.7-4.7,5.8-7.1,10.5-7.1v0
	c5.9,0,10.4,3.3,10.4,9c0,4.5-2.7,10.4-7.3,10.4c0,0,0,0,0,0c-1.6,0-3.7-0.7-4.3-1.5c-0.6-0.8-0.8-1.9-0.5-3c0.8-2.6,1.8-5.7,2-7.8
	c0.1-2-1.3-3.2-3.1-3.2c-1.4,0-3.1,0.8-4,3c-0.7,1.8-0.7,3.8,0,5.9c0.3,0.8-1.3,6.2-1.8,8c-1.3,4.4-3,9.9-2.6,13l0.4,3l1.8-2.4
	c2.5-3.3,5.1-11.8,5.8-13.8c2,2.6,6.3,2.7,6.8,2.7c6.1,0,13-6,12.8-14.4c-0.2-7.4-5.6-13.5-15.3-13.5v0c-9.2,0-14.6,4.9-15.9,11.1
	C239.9,252.2,242.6,256.6,245.8,257.8z"/>
</svg>
