<?xml version="1.0" encoding="utf-8"?>
<!-- Generator: Adobe Illustrator 22.0.1, SVG Export Plug-In . SVG Version: 6.00 Build 0)  -->
<svg version="1.1" id="Camada_1" xmlns="http://www.w3.org/2000/svg" xmlns:xlink="http://www.w3.org/1999/xlink" x="0px" y="0px"
	 viewBox="0 0 128 160" style="enable-background:new 0 0 128 160;" xml:space="preserve">
<style type="text/css">
	.st0{fill:#E7CC8F;}
</style>
<g>
	<path class="st0" d="M76.3,79.6c-1.6,1.9-3.6,3.4-6,4.5h15.3v-4.5H76.3z"/>
	<path class="st0" d="M79,68c0-8.9-7.3-16.1-16.1-16.1c-5,0-9.5,2.4-12.5,5.9c-0.5-0.2-1.1-0.4-1.5-0.9c-0.7-0.6-1.2-1.6-1.2-2.7
		c0-2,1.6-3.6,3.6-3.6c0.3,0,0.6,0,1,0.1l-1.4,2.9l3.1-1.1l4.3-1.5l-0.1-0.3l-2.4-7.1l-1.5,2.9c-1-0.3-1.9-0.5-2.9-0.5
		c-4.5,0-8.1,3.6-8.1,8.1c0,2.7,1.3,5,3.3,6.5c0.4,0.3,1,0.6,1.5,0.9c-0.9,1.9-1.3,4.1-1.3,6.3c0,1.9,0.3,3.8,1.1,5.7l-3,1.3
		l7.2,2.9l2.9-7.2L52,71.7c-0.4-1.3-0.7-2.6-0.7-4c0-6.4,5.2-11.6,11.6-11.6s11.6,5.2,11.6,11.6s-5.2,11.6-11.6,11.6H42.4v4.5h20.4
		C71.7,84.2,79,76.9,79,68z"/>
</g>
</svg>
